<svg width="34" height="20" viewBox="0 0 34 20" fill="none" xmlns="http://www.w3.org/2000/svg">
<path d="M23.2656 19.1353C23.0365 18.9061 22.9165 18.6144 22.9056 18.2603C22.8956 17.9061 23.0052 17.6144 23.2344 17.3853L29.3594 11.2603H1.64062C1.28646 11.2603 0.989375 11.1403 0.749375 10.9003C0.510209 10.6611 0.390625 10.3644 0.390625 10.0103C0.390625 9.65609 0.510209 9.359 0.749375 9.119C0.989375 8.87984 1.28646 8.76025 1.64062 8.76025H29.3594L23.2344 2.63525C23.0052 2.40609 22.8956 2.11442 22.9056 1.76025C22.9165 1.40609 23.0365 1.11442 23.2656 0.885253C23.4948 0.656087 23.7865 0.541504 24.1406 0.541504C24.4948 0.541504 24.7865 0.656087 25.0156 0.885253L33.2656 9.13525C33.3906 9.23942 33.4794 9.36942 33.5319 9.52525C33.5835 9.68192 33.6094 9.84359 33.6094 10.0103C33.6094 10.1769 33.5835 10.3332 33.5319 10.479C33.4794 10.6248 33.3906 10.7603 33.2656 10.8853L25.0156 19.1353C24.7865 19.3644 24.4948 19.479 24.1406 19.479C23.7865 19.479 23.4948 19.3644 23.2656 19.1353Z" fill="white"/>
</svg>
