<svg width="24" height="25" viewBox="0 0 24 25" fill="none" xmlns="http://www.w3.org/2000/svg">
<path d="M18 4.00195H17V3.00195C17 2.73674 16.8946 2.48238 16.7071 2.29485C16.5195 2.10731 16.2652 2.00195 16 2.00195C15.7348 2.00195 15.4804 2.10731 15.2929 2.29485C15.1053 2.48238 15 2.73674 15 3.00195V4.00195H8.99997V3.00195C8.99997 2.73674 8.89461 2.48238 8.70707 2.29485C8.51954 2.10731 8.26518 2.00195 7.99997 2.00195C7.73475 2.00195 7.4804 2.10731 7.29286 2.29485C7.10532 2.48238 6.99997 2.73674 6.99997 3.00195V4.00195H5.99997C5.20432 4.00195 4.44126 4.31802 3.87865 4.88063C3.31604 5.44324 2.99997 6.2063 2.99997 7.00195V19.002C2.99997 19.7976 3.31604 20.5607 3.87865 21.1233C4.44126 21.6859 5.20432 22.002 5.99997 22.002H18C18.7956 22.002 19.5587 21.6859 20.1213 21.1233C20.6839 20.5607 21 19.7976 21 19.002V7.00195C21 6.2063 20.6839 5.44324 20.1213 4.88063C19.5587 4.31802 18.7956 4.00195 18 4.00195ZM7.99997 17.002C7.80219 17.002 7.60885 16.9433 7.4444 16.8334C7.27995 16.7235 7.15178 16.5674 7.07609 16.3846C7.0004 16.2019 6.9806 16.0008 7.01918 15.8069C7.05777 15.6129 7.15301 15.4347 7.29286 15.2948C7.43271 15.155 7.6109 15.0598 7.80488 15.0212C7.99886 14.9826 8.19993 15.0024 8.38265 15.0781C8.56538 15.1538 8.72156 15.2819 8.83144 15.4464C8.94132 15.6108 8.99997 15.8042 8.99997 16.002C8.99997 16.2672 8.89461 16.5215 8.70707 16.7091C8.51954 16.8966 8.26518 17.002 7.99997 17.002ZM16 17.002H12C11.7348 17.002 11.4804 16.8966 11.2929 16.7091C11.1053 16.5215 11 16.2672 11 16.002C11 15.7367 11.1053 15.4824 11.2929 15.2948C11.4804 15.1073 11.7348 15.002 12 15.002H16C16.2652 15.002 16.5195 15.1073 16.7071 15.2948C16.8946 15.4824 17 15.7367 17 16.002C17 16.2672 16.8946 16.5215 16.7071 16.7091C16.5195 16.8966 16.2652 17.002 16 17.002ZM19 11.002H4.99997V7.00195C4.99997 6.73674 5.10532 6.48238 5.29286 6.29485C5.4804 6.10731 5.73475 6.00195 5.99997 6.00195H6.99997V7.00195C6.99997 7.26717 7.10532 7.52152 7.29286 7.70906C7.4804 7.8966 7.73475 8.00195 7.99997 8.00195C8.26518 8.00195 8.51954 7.8966 8.70707 7.70906C8.89461 7.52152 8.99997 7.26717 8.99997 7.00195V6.00195H15V7.00195C15 7.26717 15.1053 7.52152 15.2929 7.70906C15.4804 7.8966 15.7348 8.00195 16 8.00195C16.2652 8.00195 16.5195 7.8966 16.7071 7.70906C16.8946 7.52152 17 7.26717 17 7.00195V6.00195H18C18.2652 6.00195 18.5195 6.10731 18.7071 6.29485C18.8946 6.48238 19 6.73674 19 7.00195V11.002Z" fill="#222222"/>
</svg>
