<svg width="21" height="20" viewBox="0 0 21 20" fill="none" xmlns="http://www.w3.org/2000/svg">
<path d="M10.1613 6.25C9.40764 6.25 8.67093 6.46993 8.04429 6.88199C7.41766 7.29404 6.92927 7.87971 6.64086 8.56494C6.35245 9.25016 6.27699 10.0042 6.42402 10.7316C6.57105 11.459 6.93396 12.1272 7.46687 12.6517C7.99977 13.1761 8.67874 13.5333 9.4179 13.6779C10.1571 13.8226 10.9232 13.7484 11.6195 13.4645C12.3158 13.1807 12.9109 12.7001 13.3296 12.0834C13.7483 11.4667 13.9718 10.7417 13.9718 10C13.9718 9.00544 13.5703 8.05161 12.8557 7.34835C12.1411 6.64509 11.1719 6.25 10.1613 6.25ZM10.1613 12.5C9.65886 12.5 9.16771 12.3534 8.74996 12.0787C8.3322 11.804 8.00661 11.4135 7.81433 10.9567C7.62206 10.4999 7.57176 9.99723 7.66978 9.51227C7.76779 9.02732 8.00974 8.58186 8.36501 8.23223C8.72028 7.8826 9.17292 7.6445 9.66569 7.54804C10.1585 7.45157 10.6692 7.50108 11.1334 7.6903C11.5976 7.87952 11.9944 8.19995 12.2735 8.61107C12.5526 9.0222 12.7016 9.50555 12.7016 10C12.6995 10.6624 12.4312 11.2971 11.9553 11.7655C11.4793 12.2339 10.8344 12.4979 10.1613 12.5ZM13.6542 2.1875H6.66834C5.48931 2.1875 4.35856 2.64844 3.52485 3.46891C2.69115 4.28938 2.22278 5.40218 2.22278 6.5625V13.4375C2.22278 14.5978 2.69115 15.7106 3.52485 16.5311C4.35856 17.3516 5.48931 17.8125 6.66834 17.8125H13.6542C14.8333 17.8125 15.964 17.3516 16.7977 16.5311C17.6314 15.7106 18.0998 14.5978 18.0998 13.4375V6.5625C18.0998 5.40218 17.6314 4.28938 16.7977 3.46891C15.964 2.64844 14.8333 2.1875 13.6542 2.1875ZM16.8296 13.4375C16.8296 13.8479 16.7475 14.2542 16.5879 14.6334C16.4283 15.0125 16.1944 15.357 15.8996 15.6472C15.6047 15.9374 15.2547 16.1676 14.8694 16.3246C14.4841 16.4817 14.0712 16.5625 13.6542 16.5625H6.66834C6.25134 16.5625 5.83843 16.4817 5.45317 16.3246C5.06791 16.1676 4.71786 15.9374 4.42299 15.6472C4.12813 15.357 3.89423 15.0125 3.73465 14.6334C3.57507 14.2542 3.49294 13.8479 3.49294 13.4375V6.5625C3.49294 5.7337 3.82749 4.93884 4.42299 4.35279C5.0185 3.76674 5.82617 3.4375 6.66834 3.4375H13.6542C14.0712 3.4375 14.4841 3.51833 14.8694 3.67538C15.2547 3.83242 15.6047 4.06261 15.8996 4.35279C16.1944 4.64297 16.4283 4.98747 16.5879 5.36661C16.7475 5.74576 16.8296 6.15212 16.8296 6.5625V13.4375ZM15.2419 5.9375C15.2419 6.12292 15.1861 6.30418 15.0814 6.45835C14.9767 6.61252 14.8279 6.73268 14.6539 6.80364C14.4798 6.87459 14.2883 6.89316 14.1035 6.85699C13.9187 6.82081 13.7489 6.73152 13.6157 6.60041C13.4825 6.4693 13.3918 6.30225 13.355 6.1204C13.3182 5.93854 13.3371 5.75004 13.4092 5.57873C13.4813 5.40743 13.6034 5.26101 13.7601 5.158C13.9167 5.05498 14.1009 5 14.2893 5C14.542 5 14.7843 5.09877 14.9629 5.27459C15.1416 5.4504 15.2419 5.68886 15.2419 5.9375Z" fill="#222222"/>
</svg>
