<svg width="193" height="156" viewBox="0 0 193 156" fill="none" xmlns="http://www.w3.org/2000/svg">
<path fill-rule="evenodd" clip-rule="evenodd" d="M24.3901 15.1729C24.3901 6.85681 31.1329 0.12207 39.441 0.12207H177.909C186.217 0.12207 192.959 6.86484 192.959 15.1729V39.4629C192.96 40.5204 192.682 41.5593 192.154 42.4753C191.625 43.3912 190.865 44.1518 189.949 44.6805C187.2 46.2636 184.916 48.5432 183.328 51.2898C181.741 54.0364 180.905 57.1529 180.905 60.3254C180.905 63.4979 181.741 66.6144 183.328 69.361C184.916 72.1075 187.2 74.3872 189.949 75.9702C190.865 76.4989 191.625 77.2595 192.154 78.1755C192.682 79.0914 192.96 80.1304 192.959 81.1878V105.478C192.959 113.786 186.217 120.529 177.909 120.529H39.441C35.4492 120.529 31.621 118.943 28.7984 116.12C25.9759 113.298 24.3901 109.47 24.3901 105.478V81.1878C24.3887 80.1312 24.6653 79.0927 25.1923 78.1769C25.7193 77.261 26.478 76.5 27.3923 75.9702C30.1416 74.3872 32.4252 72.1075 34.0131 69.361C35.6009 66.6144 36.437 63.4979 36.437 60.3254C36.437 57.1529 35.6009 54.0364 34.0131 51.2898C32.4252 48.5432 30.1416 46.2636 27.3923 44.6805C26.478 44.1508 25.7193 43.3898 25.1923 42.4739C24.6653 41.558 24.3887 40.5196 24.3901 39.4629V15.1729ZM144.797 6.1424C146.393 6.1424 147.925 6.77668 149.054 7.90571C150.183 9.03475 150.817 10.566 150.817 12.1627V18.1831C150.817 19.7798 150.183 21.3111 149.054 22.4401C147.925 23.5691 146.393 24.2034 144.797 24.2034C143.2 24.2034 141.669 23.5691 140.54 22.4401C139.411 21.3111 138.776 19.7798 138.776 18.1831V12.1627C138.776 10.566 139.411 9.03475 140.54 7.90571C141.669 6.77668 143.2 6.1424 144.797 6.1424ZM150.817 42.2644C150.817 40.6677 150.183 39.1364 149.054 38.0074C147.925 36.8783 146.393 36.2441 144.797 36.2441C143.2 36.2441 141.669 36.8783 140.54 38.0074C139.411 39.1364 138.776 40.6677 138.776 42.2644V48.2847C138.776 49.8814 139.411 51.4127 140.54 52.5417C141.669 53.6708 143.2 54.3051 144.797 54.3051C146.393 54.3051 147.925 53.6708 149.054 52.5417C150.183 51.4127 150.817 49.8814 150.817 48.2847V42.2644ZM144.797 66.3457C146.393 66.3457 147.925 66.98 149.054 68.109C150.183 69.2381 150.817 70.7694 150.817 72.366V78.3864C150.817 79.9831 150.183 81.5144 149.054 82.6434C147.925 83.7724 146.393 84.4067 144.797 84.4067C143.2 84.4067 141.669 83.7724 140.54 82.6434C139.411 81.5144 138.776 79.9831 138.776 78.3864V72.366C138.776 70.7694 139.411 69.2381 140.54 68.109C141.669 66.98 143.2 66.3457 144.797 66.3457ZM150.817 102.468C150.817 100.871 150.183 99.3397 149.054 98.2107C147.925 97.0816 146.393 96.4474 144.797 96.4474C143.2 96.4474 141.669 97.0816 140.54 98.2107C139.411 99.3397 138.776 100.871 138.776 102.468V108.488C138.776 110.085 139.411 111.616 140.54 112.745C141.669 113.874 143.2 114.508 144.797 114.508C146.393 114.508 147.925 113.874 149.054 112.745C150.183 111.616 150.817 110.085 150.817 108.488V102.468ZM60.5121 60.3254C60.5121 58.7287 61.1464 57.1974 62.2754 56.0684C63.4045 54.9393 64.9358 54.3051 66.5325 54.3051H108.675C110.271 54.3051 111.803 54.9393 112.932 56.0684C114.061 57.1974 114.695 58.7287 114.695 60.3254C114.695 61.9221 114.061 63.4534 112.932 64.5824C111.803 65.7114 110.271 66.3457 108.675 66.3457H66.5325C64.9358 66.3457 63.4045 65.7114 62.2754 64.5824C61.1464 63.4534 60.5121 61.9221 60.5121 60.3254ZM66.5325 78.3864C64.9358 78.3864 63.4045 79.0207 62.2754 80.1497C61.1464 81.2787 60.5121 82.81 60.5121 84.4067C60.5121 86.0034 61.1464 87.5347 62.2754 88.6637C63.4045 89.7928 64.9358 90.427 66.5325 90.427H90.6138C92.2105 90.427 93.7418 89.7928 94.8708 88.6637C95.9998 87.5347 96.6341 86.0034 96.6341 84.4067C96.6341 82.81 95.9998 81.2787 94.8708 80.1497C93.7418 79.0207 92.2105 78.3864 90.6138 78.3864H66.5325Z" fill="#EFBA89"/>
<circle cx="30.8735" cy="124.542" r="30.8735" fill="#56C4A9"/>
<path d="M29.6693 133.465C28.8953 134.229 27.8504 134.656 26.7629 134.652C25.6754 134.648 24.6336 134.214 23.8651 133.444L19.3575 128.937C18.2255 127.805 18.2461 125.973 19.4193 124.882C20.5307 123.812 22.3008 123.853 23.3711 124.923L26.7672 128.319L40.0016 115.085C41.1131 113.974 42.9037 113.974 44.0152 115.085L44.0975 115.167C45.209 116.279 45.209 118.09 44.0769 119.202L29.6693 133.465Z" fill="white"/>
</svg>
