<svg width="21" height="20" viewBox="0 0 21 20" fill="none" xmlns="http://www.w3.org/2000/svg">
<path d="M19.1476 5.00016C18.4956 5.29183 17.7928 5.4835 17.0646 5.57516C17.8097 5.1335 18.3855 4.4335 18.6565 3.59183C17.9537 4.0085 17.1746 4.30016 16.3533 4.46683C15.6843 3.75016 14.7444 3.3335 13.6775 3.3335C11.6875 3.3335 10.0617 4.9335 10.0617 6.9085C10.0617 7.19183 10.0956 7.46683 10.1549 7.72516C7.14036 7.57516 4.45609 6.15016 2.6694 3.99183C2.35609 4.51683 2.17827 5.1335 2.17827 5.7835C2.17827 7.02516 2.81335 8.12516 3.79561 8.75016C3.1944 8.75016 2.63552 8.5835 2.1444 8.3335V8.3585C2.1444 10.0918 3.39762 11.5418 5.0573 11.8668C4.52445 12.0103 3.96504 12.0303 3.42303 11.9252C3.65301 12.6356 4.10344 13.2572 4.71098 13.7026C5.31853 14.148 6.05264 14.3949 6.81012 14.4085C5.5261 15.4089 3.93447 15.9496 2.29682 15.9418C2.00891 15.9418 1.72101 15.9252 1.43311 15.8918C3.04198 16.9085 4.95569 17.5002 7.00488 17.5002C13.6775 17.5002 17.344 12.0502 17.344 7.32516C17.344 7.16683 17.344 7.01683 17.3355 6.8585C18.0468 6.3585 18.6565 5.72516 19.1476 5.00016Z" fill="#222222"/>
</svg>
