<svg width="166" height="166" viewBox="0 0 166 166" fill="none" xmlns="http://www.w3.org/2000/svg">
<circle cx="83.66" cy="83.6598" r="79.86" fill="#2F80ED"/>
<path d="M83 0.5C37.5095 0.5 0.5 37.5095 0.5 83C0.5 128.491 37.5095 165.5 83 165.5C128.491 165.5 165.5 128.491 165.5 83C165.5 37.5095 128.491 0.5 83 0.5ZM17 83C17 75.5833 18.287 68.4635 20.5558 61.8058L33.5 74.75L50 91.25V107.75L66.5 124.25L74.75 132.5V148.431C42.2533 144.347 17 116.594 17 83ZM135.223 123.202C129.835 118.863 121.668 116 116 116V107.75C116 103.374 114.262 99.1771 111.167 96.0827C108.073 92.9884 103.876 91.25 99.5 91.25H66.5V66.5C70.8761 66.5 75.0729 64.7616 78.1673 61.6673C81.2616 58.5729 83 54.3761 83 50V41.75H91.25C95.6261 41.75 99.8229 40.0116 102.917 36.9173C106.012 33.8229 107.75 29.6261 107.75 25.25V21.8593C131.906 31.6685 149 55.3625 149 83C148.999 97.5588 144.151 111.703 135.223 123.202Z" fill="#56C4A9"/>
<path d="M109.41 107.09C107.004 107.093 104.698 108.05 102.996 109.751C101.295 111.452 100.338 113.759 100.335 116.165C100.335 123.93 108.585 129.798 108.936 130.045C109.076 130.139 109.242 130.189 109.41 130.189C109.579 130.189 109.744 130.139 109.885 130.045C110.235 129.798 118.485 123.93 118.485 116.165C118.483 113.759 117.526 111.452 115.824 109.751C114.123 108.05 111.816 107.093 109.41 107.09ZM109.41 112.865C110.063 112.865 110.701 113.058 111.244 113.421C111.786 113.784 112.209 114.299 112.459 114.902C112.709 115.505 112.774 116.169 112.647 116.809C112.52 117.449 112.205 118.037 111.744 118.498C111.282 118.96 110.694 119.274 110.054 119.401C109.414 119.529 108.75 119.463 108.147 119.214C107.544 118.964 107.029 118.541 106.666 117.998C106.304 117.456 106.11 116.818 106.11 116.165C106.11 115.29 106.458 114.45 107.077 113.831C107.696 113.213 108.535 112.865 109.41 112.865Z" fill="#CF5858"/>
<path d="M44.7303 51.6499C42.3243 51.6526 40.0176 52.6096 38.3163 54.3109C36.615 56.0122 35.658 58.3189 35.6553 60.7249C35.6553 68.4902 43.9053 74.358 44.2559 74.6055C44.3964 74.6991 44.5615 74.749 44.7303 74.749C44.8991 74.749 45.0641 74.6991 45.2046 74.6055C45.5553 74.358 53.8053 68.4902 53.8053 60.7249C53.8025 58.3189 52.8456 56.0122 51.1443 54.3109C49.443 52.6096 47.1363 51.6526 44.7303 51.6499ZM44.7303 57.4249C45.383 57.4249 46.021 57.6184 46.5637 57.9811C47.1063 58.3437 47.5293 58.8591 47.7791 59.462C48.0288 60.065 48.0942 60.7286 47.9669 61.3687C47.8395 62.0088 47.5252 62.5968 47.0637 63.0584C46.6022 63.5199 46.0142 63.8342 45.3741 63.9615C44.7339 64.0888 44.0704 64.0235 43.4674 63.7737C42.8644 63.5239 42.349 63.101 41.9864 62.5583C41.6238 62.0156 41.4303 61.3776 41.4303 60.7249C41.4303 59.8497 41.778 59.0103 42.3968 58.3915C43.0157 57.7726 43.8551 57.4249 44.7303 57.4249Z" fill="#CF5858"/>
<path d="M84.3304 12.0498C81.9244 12.0525 79.6177 13.0095 77.9164 14.7108C76.2151 16.4121 75.2581 18.7188 75.2554 21.1248C75.2554 28.8901 83.5054 34.7579 83.856 35.0054C83.9965 35.099 84.1616 35.1489 84.3304 35.1489C84.4992 35.1489 84.6642 35.099 84.8047 35.0054C85.1554 34.7579 93.4054 28.8901 93.4054 21.1248C93.4026 18.7188 92.4457 16.4121 90.7444 14.7108C89.043 13.0095 86.7364 12.0525 84.3304 12.0498ZM84.3304 17.8248C84.9831 17.8248 85.6211 18.0183 86.1638 18.381C86.7064 18.7436 87.1294 19.259 87.3792 19.8619C87.6289 20.4649 87.6943 21.1285 87.567 21.7686C87.4396 22.4087 87.1253 22.9967 86.6638 23.4583C86.2023 23.9198 85.6143 24.2341 84.9742 24.3614C84.334 24.4887 83.6705 24.4234 83.0675 24.1736C82.4645 23.9238 81.9491 23.5009 81.5865 22.9582C81.2239 22.4155 81.0304 21.7775 81.0304 21.1248C81.0304 20.2496 81.378 19.4102 81.9969 18.7914C82.6158 18.1725 83.4552 17.8248 84.3304 17.8248Z" fill="#CF5858"/>
</svg>
